{
	"asset":{
		"generator":"Khronos glTF Blender I/O v3.6.27",
		"version":"2.0"
	},
	"scene":0,
	"scenes":[
		{
			"name":"Scene",
			"nodes":[
				2,
				5,
				7,
				19
			]
		}
	],
	"nodes":[
		{
			"name":"Cube.053",
			"rotation":[
				0,
				0,
				0.46982136368751526,
				0.882761538028717
			],
			"scale":[
				2.136747360229492,
				2.136747360229492,
				5.11605978012085
			],
			"translation":[
				-8.47146987915039,
				9.031959533691406,
				1.0685399770736694
			]
		},
		{
			"children":[
				0
			],
			"name":"Root"
		},
		{
			"children":[
				1
			],
			"name":"Sketchfab_model",
			"rotation":[
				-0.70710688829422,
				0,
				0,
				0.7071066498756409
			]
		},
		{
			"name":"Cube.001",
			"scale":[
				1.2771199941635132,
				1.2771199941635132,
				1
			]
		},
		{
			"children":[
				3
			],
			"name":"Root.001"
		},
		{
			"children":[
				4
			],
			"name":"Sketchfab_model.001",
			"rotation":[
				-0.70710688829422,
				0,
				0,
				0.7071066498756409
			]
		},
		{
			"name":"Root.002"
		},
		{
			"children":[
				6
			],
			"name":"Sketchfab_model.002",
			"rotation":[
				-0.70710688829422,
				0,
				0,
				0.7071066498756409
			]
		},
		{
			"name":"Cylinder.004",
			"rotation":[
				0,
				0,
				0.8284891247749329,
				0.5600051283836365
			],
			"scale":[
				0.463640958070755,
				0.463640958070755,
				0.4636400043964386
			],
			"translation":[
				8.571479797363281,
				2.4809799194335938,
				-4.865260124206543
			]
		},
		{
			"mesh":0,
			"name":"Flower_0",
			"translation":[
				-3.337860107421875e-06,
				0,
				-3.814697265625e-06
			]
		},
		{
			"mesh":1,
			"name":"Flower_1",
			"translation":[
				-3.337860107421875e-06,
				0,
				-3.814697265625e-06
			]
		},
		{
			"children":[
				9,
				10
			],
			"name":"Flower",
			"rotation":[
				0.13514705002307892,
				-0.1952858418226242,
				0.37759411334991455,
				0.8949980139732361
			],
			"scale":[
				0.11211130768060684,
				0.16614148020744324,
				0.039754610508680344
			],
			"translation":[
				-7.145400047302246,
				3.9407899379730225,
				1.634310007095337
			]
		},
		{
			"mesh":2,
			"name":"Flower.001_0",
			"translation":[
				0,
				0,
				-1.52587890625e-05
			]
		},
		{
			"mesh":3,
			"name":"Flower.001_1",
			"translation":[
				0,
				0,
				-1.52587890625e-05
			]
		},
		{
			"children":[
				12,
				13
			],
			"name":"Flower.001",
			"rotation":[
				0.0024060006253421307,
				-0.23749010264873505,
				-0.1892983764410019,
				0.9527638554573059
			],
			"scale":[
				0.1121186688542366,
				0.16613830626010895,
				0.039756081998348236
			],
			"translation":[
				-7.163430213928223,
				4.314209938049316,
				0.5488100051879883
			]
		},
		{
			"mesh":4,
			"name":"Flower.002_0",
			"translation":[
				0,
				0,
				-3.6545097827911377e-06
			]
		},
		{
			"mesh":5,
			"name":"Flower.002_1",
			"translation":[
				0,
				0,
				-3.6545097827911377e-06
			]
		},
		{
			"children":[
				15,
				16
			],
			"name":"Flower.002",
			"rotation":[
				0.1809009462594986,
				-0.15384094417095184,
				0.5955749750137329,
				0.7673972249031067
			],
			"scale":[
				0.11211240291595459,
				0.16613662242889404,
				0.03975258395075798
			],
			"translation":[
				-6.771170139312744,
				4.260930061340332,
				-0.002300000051036477
			]
		},
		{
			"children":[
				8,
				11,
				14,
				17
			],
			"name":"Root.003"
		},
		{
			"children":[
				18
			],
			"name":"Sketchfab_model.003",
			"rotation":[
				-0.70710688829422,
				0,
				0,
				0.7071066498756409
			]
		}
	],
	"materials":[
		{
			"doubleSided":true,
			"name":"WhiteLeaf",
			"pbrMetallicRoughness":{
				"metallicFactor":0,
				"roughnessFactor":0.6000000238418579
			}
		},
		{
			"doubleSided":true,
			"name":"Grass.001",
			"pbrMetallicRoughness":{
				"baseColorFactor":[
					0.04529212415218353,
					0.3108145594596863,
					0.057501696050167084,
					1
				],
				"metallicFactor":0,
				"roughnessFactor":0.6000000238418579
			}
		}
	],
	"meshes":[
		{
			"name":"Flower_0",
			"primitives":[
				{
					"attributes":{
						"POSITION":0,
						"NORMAL":1,
						"TEXCOORD_0":2
					},
					"indices":3,
					"material":0
				}
			]
		},
		{
			"name":"Flower_1",
			"primitives":[
				{
					"attributes":{
						"POSITION":4,
						"NORMAL":5,
						"TEXCOORD_0":6
					},
					"indices":7,
					"material":1
				}
			]
		},
		{
			"name":"Flower.001_0",
			"primitives":[
				{
					"attributes":{
						"POSITION":8,
						"NORMAL":9,
						"TEXCOORD_0":10
					},
					"indices":3,
					"material":0
				}
			]
		},
		{
			"name":"Flower.001_1",
			"primitives":[
				{
					"attributes":{
						"POSITION":11,
						"NORMAL":12,
						"TEXCOORD_0":13
					},
					"indices":7,
					"material":1
				}
			]
		},
		{
			"name":"Flower.002_0",
			"primitives":[
				{
					"attributes":{
						"POSITION":14,
						"NORMAL":15,
						"TEXCOORD_0":16
					},
					"indices":3,
					"material":0
				}
			]
		},
		{
			"name":"Flower.002_1",
			"primitives":[
				{
					"attributes":{
						"POSITION":17,
						"NORMAL":18,
						"TEXCOORD_0":19
					},
					"indices":7,
					"material":1
				}
			]
		}
	],
	"accessors":[
		{
			"bufferView":0,
			"componentType":5126,
			"count":360,
			"max":[
				2.2997798919677734,
				1.0270700454711914,
				6.394179821014404
			],
			"min":[
				-2.425309896469116,
				-1.8486599922180176,
				-1.0746500492095947
			],
			"type":"VEC3"
		},
		{
			"bufferView":1,
			"componentType":5126,
			"count":360,
			"type":"VEC3"
		},
		{
			"bufferView":2,
			"componentType":5126,
			"count":360,
			"type":"VEC2"
		},
		{
			"bufferView":3,
			"componentType":5123,
			"count":360,
			"type":"SCALAR"
		},
		{
			"bufferView":4,
			"componentType":5126,
			"count":108,
			"max":[
				2.722759962081909,
				1.1020100116729736,
				1.5095499753952026
			],
			"min":[
				-4.820930004119873,
				-0.4704900085926056,
				-34.4198112487793
			],
			"type":"VEC3"
		},
		{
			"bufferView":5,
			"componentType":5126,
			"count":108,
			"type":"VEC3"
		},
		{
			"bufferView":6,
			"componentType":5126,
			"count":108,
			"type":"VEC2"
		},
		{
			"bufferView":7,
			"componentType":5123,
			"count":156,
			"type":"SCALAR"
		},
		{
			"bufferView":8,
			"componentType":5126,
			"count":360,
			"max":[
				6.570849895477295,
				1.1482199430465698,
				39.632080078125
			],
			"min":[
				1.8457499742507935,
				-1.7275099754333496,
				32.16324996948242
			],
			"type":"VEC3"
		},
		{
			"bufferView":9,
			"componentType":5126,
			"count":360,
			"type":"VEC3"
		},
		{
			"bufferView":10,
			"componentType":5126,
			"count":360,
			"type":"VEC2"
		},
		{
			"bufferView":11,
			"componentType":5126,
			"count":108,
			"max":[
				6.99383020401001,
				1.2231600284576416,
				34.74745178222656
			],
			"min":[
				-0.5498600006103516,
				-0.3493399918079376,
				-1.1819100379943848
			],
			"type":"VEC3"
		},
		{
			"bufferView":12,
			"componentType":5126,
			"count":108,
			"type":"VEC3"
		},
		{
			"bufferView":13,
			"componentType":5126,
			"count":108,
			"type":"VEC2"
		},
		{
			"bufferView":14,
			"componentType":5126,
			"count":360,
			"max":[
				6.013050079345703,
				0.8003900051116943,
				38.24382019042969
			],
			"min":[
				2.48649001121521,
				-1.448639988899231,
				32.70233917236328
			],
			"type":"VEC3"
		},
		{
			"bufferView":15,
			"componentType":5126,
			"count":360,
			"type":"VEC3"
		},
		{
			"bufferView":16,
			"componentType":5126,
			"count":360,
			"type":"VEC2"
		},
		{
			"bufferView":17,
			"componentType":5126,
			"count":108,
			"max":[
				6.99383020401001,
				1.2231600284576416,
				34.74745178222656
			],
			"min":[
				-0.5498600006103516,
				-0.3493399918079376,
				-1.1819100379943848
			],
			"type":"VEC3"
		},
		{
			"bufferView":18,
			"componentType":5126,
			"count":108,
			"type":"VEC3"
		},
		{
			"bufferView":19,
			"componentType":5126,
			"count":108,
			"type":"VEC2"
		}
	],
	"bufferViews":[
		{
			"buffer":0,
			"byteLength":4320,
			"byteOffset":0,
			"target":34962
		},
		{
			"buffer":0,
			"byteLength":4320,
			"byteOffset":4320,
			"target":34962
		},
		{
			"buffer":0,
			"byteLength":2880,
			"byteOffset":8640,
			"target":34962
		},
		{
			"buffer":0,
			"byteLength":720,
			"byteOffset":11520,
			"target":34963
		},
		{
			"buffer":0,
			"byteLength":1296,
			"byteOffset":12240,
			"target":34962
		},
		{
			"buffer":0,
			"byteLength":1296,
			"byteOffset":13536,
			"target":34962
		},
		{
			"buffer":0,
			"byteLength":864,
			"byteOffset":14832,
			"target":34962
		},
		{
			"buffer":0,
			"byteLength":312,
			"byteOffset":15696,
			"target":34963
		},
		{
			"buffer":0,
			"byteLength":4320,
			"byteOffset":16008,
			"target":34962
		},
		{
			"buffer":0,
			"byteLength":4320,
			"byteOffset":20328,
			"target":34962
		},
		{
			"buffer":0,
			"byteLength":2880,
			"byteOffset":24648,
			"target":34962
		},
		{
			"buffer":0,
			"byteLength":1296,
			"byteOffset":27528,
			"target":34962
		},
		{
			"buffer":0,
			"byteLength":1296,
			"byteOffset":28824,
			"target":34962
		},
		{
			"buffer":0,
			"byteLength":864,
			"byteOffset":30120,
			"target":34962
		},
		{
			"buffer":0,
			"byteLength":4320,
			"byteOffset":30984,
			"target":34962
		},
		{
			"buffer":0,
			"byteLength":4320,
			"byteOffset":35304,
			"target":34962
		},
		{
			"buffer":0,
			"byteLength":2880,
			"byteOffset":39624,
			"target":34962
		},
		{
			"buffer":0,
			"byteLength":1296,
			"byteOffset":42504,
			"target":34962
		},
		{
			"buffer":0,
			"byteLength":1296,
			"byteOffset":43800,
			"target":34962
		},
		{
			"buffer":0,
			"byteLength":864,
			"byteOffset":45096,
			"target":34962
		}
	],
	"buffers":[
		{
			"byteLength":45960,
			"uri":"data:application/octet-stream;base64,"
		}
	]
}
