{
	"asset":{
		"generator":"Khronos glTF Blender I/O v3.6.27",
		"version":"2.0"
	},
	"scene":0,
	"scenes":[
		{
			"name":"Scene",
			"nodes":[
				2,
				5,
				18
			]
		}
	],
	"nodes":[
		{
			"name":"Cube.053",
			"rotation":[
				0,
				0,
				0.46982136368751526,
				0.882761538028717
			],
			"scale":[
				2.136747360229492,
				2.136747360229492,
				5.11605978012085
			],
			"translation":[
				-8.47146987915039,
				9.031959533691406,
				1.0685399770736694
			]
		},
		{
			"children":[
				0
			],
			"name":"Root"
		},
		{
			"children":[
				1
			],
			"name":"Sketchfab_model",
			"rotation":[
				-0.70710688829422,
				0,
				0,
				0.7071066498756409
			]
		},
		{
			"name":"Cube.001",
			"scale":[
				1.2771199941635132,
				1.2771199941635132,
				1
			]
		},
		{
			"children":[
				3
			],
			"name":"Root.001"
		},
		{
			"children":[
				4
			],
			"name":"Sketchfab_model.001",
			"rotation":[
				-0.70710688829422,
				0,
				0,
				0.7071066498756409
			]
		},
		{
			"mesh":0,
			"name":"Lantern_0",
			"translation":[
				3.4210720514238346e-06,
				0,
				-2.6279415124008665e-06
			]
		},
		{
			"children":[
				6
			],
			"name":"Lantern",
			"scale":[
				0.07609999924898148,
				0.07609999924898148,
				0.07609999924898148
			],
			"translation":[
				0.01650012470781803,
				-0.005839973222464323,
				-0.5672704577445984
			]
		},
		{
			"mesh":1,
			"name":"LanternHold_0",
			"translation":[
				3.4417471397318877e-06,
				0,
				0
			]
		},
		{
			"children":[
				8
			],
			"name":"LanternHold",
			"scale":[
				0.07609999924898148,
				0.07609999924898148,
				0.07609999924898148
			],
			"translation":[
				0.01649995520710945,
				-0.005759940017014742,
				-0.35276052355766296
			]
		},
		{
			"children":[
				7,
				9
			],
			"name":"Empty",
			"rotation":[
				0,
				0,
				-0.9996272325515747,
				0.027305399999022484
			],
			"scale":[
				1.7373008728027344,
				1.7373008728027344,
				1.7373000383377075
			],
			"translation":[
				-5.803040027618408,
				-2.594449996948242,
				6.78292989730835
			]
		},
		{
			"mesh":2,
			"name":"LanternLargeStem_0"
		},
		{
			"mesh":3,
			"name":"Cube.058_0",
			"translation":[
				4.40918120148126e-06,
				0,
				-6.840291462140158e-06
			]
		},
		{
			"children":[
				12
			],
			"name":"Cube.058",
			"scale":[
				0.2720699906349182,
				0.1223599910736084,
				0.2720699608325958
			],
			"translation":[
				-0.041824109852313995,
				-4.053840160369873,
				-1.395284652709961
			]
		},
		{
			"mesh":4,
			"name":"LaternHang_0",
			"translation":[
				6.381382263498381e-06,
				0,
				-6.885318271088181e-06
			]
		},
		{
			"children":[
				13,
				14
			],
			"name":"LaternHang",
			"scale":[
				0.10034999251365662,
				0.223130002617836,
				0.10034999251365662
			],
			"translation":[
				-0.07093998789787292,
				-0.478460431098938,
				3.7244298458099365
			]
		},
		{
			"children":[
				11,
				15
			],
			"name":"LanternLargeStem",
			"rotation":[
				0,
				0,
				-0.9996272325515747,
				0.027305399999022484
			],
			"scale":[
				1.7373008728027344,
				1.7373008728027344,
				1.7373000383377075
			],
			"translation":[
				-5.814740180969238,
				-4.821020126342773,
				0.7008299827575684
			]
		},
		{
			"children":[
				10,
				16
			],
			"name":"Root.002"
		},
		{
			"children":[
				17
			],
			"name":"Sketchfab_model.002",
			"rotation":[
				-0.70710688829422,
				0,
				0,
				0.7071066498756409
			]
		}
	],
	"materials":[
		{
			"doubleSided":true,
			"name":"Metal",
			"pbrMetallicRoughness":{
				"baseColorFactor":[
					0.05779885873198509,
					0.05779885873198509,
					0.05779885873198509,
					1
				],
				"roughnessFactor":0.7883002758026123
			}
		},
		{
			"doubleSided":true,
			"name":"DarkTreeBark",
			"pbrMetallicRoughness":{
				"baseColorFactor":[
					0.2015562504529953,
					0.0666259378194809,
					0.017641954123973846,
					1
				],
				"metallicFactor":0,
				"roughnessFactor":0.6000000238418579
			}
		},
		{
			"doubleSided":true,
			"name":"LightMetal",
			"pbrMetallicRoughness":{
				"baseColorFactor":[
					0.34237435460090637,
					0.34237435460090637,
					0.34237435460090637,
					1
				],
				"metallicFactor":0,
				"roughnessFactor":0.6000000238418579
			}
		}
	],
	"meshes":[
		{
			"name":"Lantern_0",
			"primitives":[
				{
					"attributes":{
						"POSITION":0,
						"NORMAL":1
					},
					"indices":2,
					"material":0
				}
			]
		},
		{
			"name":"LanternHold_0",
			"primitives":[
				{
					"attributes":{
						"POSITION":3,
						"NORMAL":4
					},
					"indices":5,
					"material":0
				}
			]
		},
		{
			"name":"LanternLargeStem_0",
			"primitives":[
				{
					"attributes":{
						"POSITION":6,
						"NORMAL":7
					},
					"indices":8,
					"material":1
				}
			]
		},
		{
			"name":"Cube.058_0",
			"primitives":[
				{
					"attributes":{
						"POSITION":9,
						"NORMAL":10
					},
					"indices":11,
					"material":2
				}
			]
		},
		{
			"name":"LaternHang_0",
			"primitives":[
				{
					"attributes":{
						"POSITION":12,
						"NORMAL":13
					},
					"indices":14,
					"material":1
				}
			]
		}
	],
	"accessors":[
		{
			"bufferView":0,
			"componentType":5126,
			"count":1002,
			"max":[
				2.7072501182556152,
				2.7082901000976562,
				4.827040195465088
			],
			"min":[
				-2.7072501182556152,
				-2.706209897994995,
				-4.576869964599609
			],
			"type":"VEC3"
		},
		{
			"bufferView":1,
			"componentType":5126,
			"count":1002,
			"type":"VEC3"
		},
		{
			"bufferView":2,
			"componentType":5123,
			"count":1746,
			"type":"SCALAR"
		},
		{
			"bufferView":3,
			"componentType":5126,
			"count":336,
			"max":[
				1.2185100317001343,
				0.22787000238895416,
				4.785830020904541
			],
			"min":[
				-1.342810034751892,
				-0.23684999346733093,
				1.341480016708374
			],
			"type":"VEC3"
		},
		{
			"bufferView":4,
			"componentType":5126,
			"count":336,
			"type":"VEC3"
		},
		{
			"bufferView":5,
			"componentType":5123,
			"count":504,
			"type":"SCALAR"
		},
		{
			"bufferView":6,
			"componentType":5126,
			"count":822,
			"max":[
				0.3154299855232239,
				0.3672800064086914,
				4.007780075073242
			],
			"min":[
				-0.251910001039505,
				-0.20958000421524048,
				0
			],
			"type":"VEC3"
		},
		{
			"bufferView":7,
			"componentType":5126,
			"count":822,
			"type":"VEC3"
		},
		{
			"bufferView":8,
			"componentType":5123,
			"count":900,
			"type":"SCALAR"
		},
		{
			"bufferView":9,
			"componentType":5126,
			"count":204,
			"max":[
				0.892009973526001,
				5.7685699462890625,
				2.24399995803833
			],
			"min":[
				-0.892009973526001,
				0.09164000302553177,
				-4.994949817657471
			],
			"type":"VEC3"
		},
		{
			"bufferView":10,
			"componentType":5126,
			"count":204,
			"type":"VEC3"
		},
		{
			"bufferView":11,
			"componentType":5123,
			"count":276,
			"type":"SCALAR"
		},
		{
			"bufferView":12,
			"componentType":5126,
			"count":94,
			"max":[
				0.6490499973297119,
				4.424349784851074,
				0.8969600200653076
			],
			"min":[
				-0.6594600081443787,
				-4.7930498123168945,
				-0.9503200054168701
			],
			"type":"VEC3"
		},
		{
			"bufferView":13,
			"componentType":5126,
			"count":94,
			"type":"VEC3"
		},
		{
			"bufferView":14,
			"componentType":5123,
			"count":120,
			"type":"SCALAR"
		}
	],
	"bufferViews":[
		{
			"buffer":0,
			"byteLength":12024,
			"byteOffset":0,
			"target":34962
		},
		{
			"buffer":0,
			"byteLength":12024,
			"byteOffset":12024,
			"target":34962
		},
		{
			"buffer":0,
			"byteLength":3492,
			"byteOffset":24048,
			"target":34963
		},
		{
			"buffer":0,
			"byteLength":4032,
			"byteOffset":27540,
			"target":34962
		},
		{
			"buffer":0,
			"byteLength":4032,
			"byteOffset":31572,
			"target":34962
		},
		{
			"buffer":0,
			"byteLength":1008,
			"byteOffset":35604,
			"target":34963
		},
		{
			"buffer":0,
			"byteLength":9864,
			"byteOffset":36612,
			"target":34962
		},
		{
			"buffer":0,
			"byteLength":9864,
			"byteOffset":46476,
			"target":34962
		},
		{
			"buffer":0,
			"byteLength":1800,
			"byteOffset":56340,
			"target":34963
		},
		{
			"buffer":0,
			"byteLength":2448,
			"byteOffset":58140,
			"target":34962
		},
		{
			"buffer":0,
			"byteLength":2448,
			"byteOffset":60588,
			"target":34962
		},
		{
			"buffer":0,
			"byteLength":552,
			"byteOffset":63036,
			"target":34963
		},
		{
			"buffer":0,
			"byteLength":1128,
			"byteOffset":63588,
			"target":34962
		},
		{
			"buffer":0,
			"byteLength":1128,
			"byteOffset":64716,
			"target":34962
		},
		{
			"buffer":0,
			"byteLength":240,
			"byteOffset":65844,
			"target":34963
		}
	],
	"buffers":[
		{
			"byteLength":66084,
			"uri":"data:application/octet-stream;base64,"
		}
	]
}
