{
	"asset":{
		"generator":"Khronos glTF Blender I/O v3.6.27",
		"version":"2.0"
	},
	"scene":0,
	"scenes":[
		{
			"name":"Scene",
			"nodes":[
				2,
				3
			]
		}
	],
	"nodes":[
		{
			"name":"DirtPile.002",
			"rotation":[
				-0.9806691408157349,
				-0.18753348290920258,
				-0.010492361150681973,
				0.054855719208717346
			],
			"scale":[
				0.3588598370552063,
				0.35886213183403015,
				0.3588586151599884
			],
			"translation":[
				-7.052720069885254,
				-1.1505500078201294,
				0.31209999322891235
			]
		},
		{
			"children":[
				0
			],
			"name":"Root"
		},
		{
			"children":[
				1
			],
			"name":"Sketchfab_model",
			"rotation":[
				-0.70710688829422,
				0,
				0,
				0.7071066498756409
			]
		},
		{
			"mesh":0,
			"name":"DirtPile.002_0"
		}
	],
	"materials":[
		{
			"doubleSided":true,
			"name":"Dirt",
			"pbrMetallicRoughness":{
				"baseColorFactor":[
					0.12371090054512024,
					0.0900668203830719,
					0.023872382938861847,
					1
				],
				"metallicFactor":0
			}
		}
	],
	"meshes":[
		{
			"name":"DirtPile.002_0",
			"primitives":[
				{
					"attributes":{
						"POSITION":0,
						"NORMAL":1
					},
					"indices":2,
					"material":0
				}
			]
		}
	],
	"accessors":[
		{
			"bufferView":0,
			"componentType":5126,
			"count":458,
			"max":[
				2.526979923248291,
				2.9052300453186035,
				-0.2331099957227707
			],
			"min":[
				-2.7911698818206787,
				-3.6760599613189697,
				-1.4897600412368774
			],
			"type":"VEC3"
		},
		{
			"bufferView":1,
			"componentType":5126,
			"count":458,
			"type":"VEC3"
		},
		{
			"bufferView":2,
			"componentType":5123,
			"count":480,
			"type":"SCALAR"
		}
	],
	"bufferViews":[
		{
			"buffer":0,
			"byteLength":5496,
			"byteOffset":0,
			"target":34962
		},
		{
			"buffer":0,
			"byteLength":5496,
			"byteOffset":5496,
			"target":34962
		},
		{
			"buffer":0,
			"byteLength":960,
			"byteOffset":10992,
			"target":34963
		}
	],
	"buffers":[
		{
			"byteLength":11952,
			"uri":"data:application/octet-stream;base64,"
		}
	]
}
